# xmcd
#
# Track frame offsets: 
#        150
#        17700
#        35380
#        60760
#        122030
#        146062
#        171807
#        198687
#        236407
#
# Disc length: 3338 seconds
#
# Revision: 1
# Processed by: cddbd v1.5.2PL0 Copyright (c) Steve Scherf et al.
# Submitted via: ExactAudioCopy v0.95b4
#
DISCID=740d0809
DTITLE=Jimi Hendrix - Band Of Gypsys - Live At The Fillmore East - Dis
DTITLE=c 2
DYEAR=1999
DGENRE=Rock
TTITLE0=Auld Lang Syne
TTITLE1=Who Knows
TTITLE2=Changes
TTITLE3=Machine Gun
TTITLE4=Stepping Stone
TTITLE5=Stop
TTITLE6=Earth Blues
TTITLE7=Burning Desire
TTITLE8=Wild Thing
EXTD=
EXTT0=
EXTT1=
EXTT2=
EXTT3=
EXTT4=
EXTT5=
EXTT6=
EXTT7=
EXTT8=
PLAYORDER=
